# xmcd
#
# Track frame offsets:
#	150
#	16630
#	39499
#	52709
#	73728
#	97183
#	116874
#	146316
#	167973
#	203750
#	222117
#
# Disc length: 3461 seconds
#
# Revision: 1
# Processed by: cddbd v1.5.2PL0 Copyright (c) Steve Scherf et al.
# Submitted via: EasyCDDAExtractor 12.0.1.1
#
DISCID=960d830b
DTITLE=Vargas Blues Band - Flamenco Blues Experience
DYEAR=2008
DGENRE=Blues
TTITLE0=Walking The Streets
TTITLE1=Blues In My Soul
TTITLE2=Ya Ya Ya Looking For My Baby
TTITLE3=Beautiful Woman
TTITLE4=Blues Para Lucia
TTITLE5=No Pasa Nada
TTITLE6=Terra Del Vino
TTITLE7=Bluesvision
TTITLE8=Blues De Los Colores
TTITLE9=Mojo Hand
TTITLE10=Your Love Is A Jail
EXTD=
EXTT0=
EXTT1=
EXTT2=
EXTT3=
EXTT4=
EXTT5=
EXTT6=
EXTT7=
EXTT8=
EXTT9=
EXTT10=
PLAYORDER=
